<svg id="Layer_1" fill="#0d4876" enable-background="new 0 0 512 512" height="512" viewBox="0 0 512 512" width="512" xmlns="http://www.w3.org/2000/svg"><path clip-rule="evenodd" d="m393.531 351.797 49.613 85.931-76.162-15.373-24.768 73.645-53.551-92.754c40.166-6.537 76.357-24.917 104.868-51.449zm-137.531-335.797c-103.799 0-187.945 84.146-187.945 187.945s84.146 187.945 187.945 187.945 187.945-84.146 187.945-187.945-84.146-187.945-187.945-187.945zm0 104.727 23.495 59.664 64.005 3.909-49.484 40.783 16.061 62.08-54.077-34.46-54.078 34.459 16.061-62.08-49.483-40.782 64.005-3.909zm0-61.588c79.972 0 144.806 64.833 144.806 144.806 0 79.972-64.834 144.806-144.806 144.806s-144.806-64.833-144.806-144.806 64.834-144.806 144.806-144.806zm0 14.001c72.243 0 130.805 58.562 130.805 130.805s-58.562 130.805-130.805 130.805-130.805-58.562-130.805-130.805 58.562-130.805 130.805-130.805zm-137.531 278.657c28.51 26.533 64.701 44.912 104.868 51.449l-51.489 89.181-24.768-73.645-76.162 15.373z" fill-rule="evenodd"/></svg>