<svg xmlns="http://www.w3.org/2000/svg" version="1.1" xmlns:xlink="http://www.w3.org/1999/xlink" strock="1px" width="512" height="512" x="0" y="0" viewBox="0 0 64 64" style="enable-background:new 0 0 512 512" xml:space="preserve" class=""><g transform="matrix(0.9999999999999991,0,0,0.9999999999999991,2.4868995751603507e-14,1.4210854715202004e-14)"><ellipse cx="32" cy="37" fill="#f2f2f2" rx="13" ry="7" opacity="1" data-original="#f2f2f2" class=""></ellipse><path fill="#f2f2f2" d="M24 27h16v12H24z" opacity="1" data-original="#f2f2f2" class=""></path><path fill="#ffffff" d="M29 33h6v6h-6z" opacity="1" data-original="#647da6" class=""></path><path fill="#ffffff" d="M42 27H22l2-6h16z" opacity="1" data-original="#e66d67" class=""></path><path fill="#ffffff" d="M32 21v6h-5l1-6z" opacity="1" data-original="#ffb866" class=""></path><path fill="#ffffff" d="M37 27h-5v-6h4z" opacity="1" data-original="#e66d67" class=""></path><path fill="#ffffff" d="M42 27h-5l-1-6h4z" opacity="1" data-original="#ffb866" class=""></path><path fill="#ffffff" d="M54 49v-6.06a2 2 0 0 1 2-2h4a2 2 0 0 1 2 2V49z" opacity="1" data-original="#647da6" class=""></path><circle cx="58" cy="37.44" r="2.5" fill="#ffffff" opacity="1" data-original="#eeceb2" class=""></circle><path fill="#ffffff" d="M38 62v-6a2 2 0 0 1 2-2h4a2 2 0 0 1 2 2v6z" opacity="1" data-original="#647da6" class=""></path><circle cx="42" cy="50.47" r="2.5" fill="#ffffff" opacity="1" data-original="#eeceb2" class=""></circle><path fill="#ffffff" d="M18 62v-6a2 2 0 0 1 2-2h4a2 2 0 0 1 2 2v6z" opacity="1" data-original="#647da6" class=""></path><circle cx="22" cy="50.47" r="2.5" fill="#ffffff" opacity="1" data-original="#eeceb2" class=""></circle><path fill="#ffffff" d="M2 49v-6.06a2 2 0 0 1 2-2h4a2 2 0 0 1 2 2V49z" opacity="1" data-original="#647da6" class=""></path><circle cx="6" cy="37.44" r="2.5" fill="#ffffff" opacity="1" data-original="#eeceb2" class=""></circle><path fill="#ffffff" d="M54 29.06V23a2 2 0 0 1 2-2h4a2 2 0 0 1 2 2v6.06z" opacity="1" data-original="#647da6" class=""></path><circle cx="58" cy="17.5" r="2.5" fill="#ffffff" opacity="1" data-original="#eeceb2" class=""></circle><path fill="#ffffff" d="M38 16V9.94a2 2 0 0 1 2-2h4a2 2 0 0 1 2 2V16z" opacity="1" data-original="#647da6" class=""></path><circle cx="42" cy="4.44" r="2.5" fill="#ffffff" opacity="1" data-original="#eeceb2" class=""></circle><path fill="#ffffff" d="M18 16V9.94a2 2 0 0 1 2-2h4a2 2 0 0 1 2 2V16z" opacity="1" data-original="#647da6" class=""></path><circle cx="22" cy="4.44" r="2.5" fill="#ffffff" opacity="1" data-original="#eeceb2" class=""></circle><path fill="#ffffff" d="M2 29.06V23a2 2 0 0 1 2-2h4a2 2 0 0 1 2 2v6.06z" opacity="1" data-original="#647da6" class=""></path><circle cx="6" cy="17.5" r="2.5" fill="#ffffff" opacity="1" data-original="#eeceb2" class=""></circle><path d="M60.39 40a3.5 3.5 0 1 0-4.78 0A3 3 0 0 0 53 43v6a1 1 0 0 0 1 1h8a1.06 1.06 0 0 0 1-1.06v-6A3 3 0 0 0 60.39 40zM58 36a1.5 1.5 0 1 1-1.5 1.5 1.5 1.5 0 0 1 1.5-1.56zm3 12h-6v-5.06a1 1 0 0 1 1-1h4a1 1 0 0 1 1 1zM38 63h8a1.06 1.06 0 0 0 1-1v-6a3 3 0 0 0-2.61-3 3.5 3.5 0 1 0-4.78 0A3 3 0 0 0 37 56v6a1 1 0 0 0 1 1zm4-14a1.5 1.5 0 1 1-1.5 1.5A1.5 1.5 0 0 1 42 49zm-3 7a1 1 0 0 1 1-1h4a1 1 0 0 1 1 1v5h-6zM18 63h8a1.06 1.06 0 0 0 1-1v-6a3 3 0 0 0-2.61-3 3.5 3.5 0 1 0-4.78 0A3 3 0 0 0 17 56v6a1 1 0 0 0 1 1zm4-14a1.5 1.5 0 1 1-1.5 1.5A1.5 1.5 0 0 1 22 49zm-3 7a1 1 0 0 1 1-1h4a1 1 0 0 1 1 1v5h-6zM2 50h8a1.06 1.06 0 0 0 1-1.06v-6a3 3 0 0 0-2.61-3 3.5 3.5 0 1 0-4.78 0 3 3 0 0 0-2.61 3V49a1 1 0 0 0 1 1zm4-14.06a1.5 1.5 0 1 1-1.5 1.5 1.5 1.5 0 0 1 1.5-1.5zm-3 7a1 1 0 0 1 1-1h4a1 1 0 0 1 1 1V48H3zM60.39 20a3.5 3.5 0 1 0-4.78 0A3 3 0 0 0 53 23v6.06a1 1 0 0 0 1 1h8A1.06 1.06 0 0 0 63 29v-6a3 3 0 0 0-2.61-3zM58 16a1.5 1.5 0 1 1-1.5 1.5A1.5 1.5 0 0 1 58 16zm3 12.06h-6V23a1 1 0 0 1 1-1h4a1 1 0 0 1 1 1zM38 17h8a1.06 1.06 0 0 0 1-1.06v-6a3 3 0 0 0-2.61-3 3.5 3.5 0 1 0-4.78 0 3 3 0 0 0-2.61 3V16a1 1 0 0 0 1 1zm4-14.06a1.5 1.5 0 1 1-1.5 1.5 1.5 1.5 0 0 1 1.5-1.5zm-3 7a1 1 0 0 1 1-1h4a1 1 0 0 1 1 1V15h-6zM18 17h8a1.06 1.06 0 0 0 1-1.06v-6a3 3 0 0 0-2.61-3 3.5 3.5 0 1 0-4.78 0 3 3 0 0 0-2.61 3V16a1 1 0 0 0 1 1zm4-14.06a1.5 1.5 0 1 1-1.5 1.5 1.5 1.5 0 0 1 1.5-1.5zm-3 7a1 1 0 0 1 1-1h4a1 1 0 0 1 1 1V15h-6zM2 30.06h8A1.06 1.06 0 0 0 11 29v-6a3 3 0 0 0-2.61-3 3.5 3.5 0 1 0-4.78 0A3 3 0 0 0 1 23v6.06a1 1 0 0 0 1 1zM6 16a1.5 1.5 0 1 1-1.5 1.5A1.5 1.5 0 0 1 6 16zm-3 7a1 1 0 0 1 1-1h4a1 1 0 0 1 1 1v5.06H3zM18 37c0 4.49 6.15 8 14 8s14-3.51 14-8c0-2.44-1.82-4.65-5-6.15V28h1a1 1 0 0 0 .81-.42 1 1 0 0 0 .14-.9l-2-6A1 1 0 0 0 40 20H24a1 1 0 0 0-.95.68l-2 6a1 1 0 0 0 .14.9A1 1 0 0 0 22 28h1v2.85c-3.18 1.5-5 3.71-5 6.15zm26 0c0 3.25-5.5 6-12 6s-12-2.75-12-6c0-1.41 1.11-2.8 3-3.9V39a1 1 0 0 0 1 1h16a1 1 0 0 0 1-1v-5.9c1.89 1.1 3 2.49 3 3.9zm-10 1h-4v-4h4zm6.61-12h-2.76l-.67-4h2.1zm-12.43 0 .67-4H31v4zM33 22h2.15l.67 4H33zm-8.28 0h2.1l-.67 4h-2.76zM39 28v10h-3v-5a1 1 0 0 0-1-1h-6a1 1 0 0 0-1 1v5h-3V28z" fill="#206185" opacity="1" data-original="#000000" class=""></path></g></svg>