<svg xmlns="http://www.w3.org/2000/svg" version="1.1" xmlns:xlink="http://www.w3.org/1999/xlink" width="512" height="512" x="0" y="0" viewBox="0 0 384.481 423.41" style="enable-background:new 0 0 512 512" xml:space="preserve" class=""><g><path d="M254.298 64.954v38.598c2.648.974 4.546 3.515 4.546 6.498 0 .163-.013.322-.024.482h22.74c-.01-.16-.024-.319-.024-.482a6.937 6.937 0 0 1 6.929-6.93 6.937 6.937 0 0 1 6.93 6.93c0 .163-.014.322-.025.482h89.11V0H6.67v110.532h209.976V64.954z" fill="#ffffff" opacity="1" data-original="#000000" class=""></path><path d="M224.314 130.724a1.7 1.7 0 0 0 2.707.779 1.71 1.71 0 0 0 2.797-1.204l.753-11.62a1.1 1.1 0 0 0 .659.218c.578 0 1.065-.45 1.103-1.034.588-8.997-1.447-11.143-1.86-11.482a1.1 1.1 0 0 0-.667-.249 1.08 1.08 0 0 0-.113-.006h-5.343c-.038 0-.076.002-.113.006a1.1 1.1 0 0 0-.667.249c-.414.339-2.448 2.485-1.86 11.482a1.106 1.106 0 0 0 1.762.816l.237 3.657a8.685 8.685 0 0 1 1.41 4.746 8.677 8.677 0 0 1-.805 3.642zM227.022 105.338a3.111 3.111 0 1 0 0-6.222 3.111 3.111 0 0 0 0 6.222zM235.537 101.853a1.106 1.106 0 0 0 1.762.816l.753 11.62a1.71 1.71 0 0 0 2.797 1.204 1.71 1.71 0 0 0 2.797-1.204l.752-11.62a1.1 1.1 0 0 0 .66.218c.577 0 1.064-.45 1.102-1.034.588-8.997-1.446-11.143-1.86-11.482a1.1 1.1 0 0 0-.667-.248 1.082 1.082 0 0 0-.113-.007h-5.343c-.038 0-.076.003-.113.006a1.1 1.1 0 0 0-.666.25c-.414.338-2.449 2.484-1.86 11.48zM240.849 89.328a3.111 3.111 0 1 0 0-6.222 3.111 3.111 0 0 0 0 6.222zM269.751 149.184c0 2.556-.854 4.91-2.277 6.814l.067 1.037a5.92 5.92 0 0 1 2.03 1.071c.755.619 1.811 1.769 2.85 3.833.21.077.433.13.669.146a2.43 2.43 0 0 0 2.582-2.268l1.07-16.517a1.563 1.563 0 0 0 .937.31c.822 0 1.513-.639 1.568-1.47.835-12.79-2.057-15.84-2.645-16.321a1.564 1.564 0 0 0-.947-.353 1.523 1.523 0 0 0-.161-.01H267.9c-.055 0-.108.004-.161.01-.335.01-.669.125-.948.353-.542.444-3.035 3.073-2.773 13.477 3.42 1.975 5.733 5.663 5.733 9.888z" fill="#ffffff" opacity="1" data-original="#000000" class=""></path><circle cx="271.697" cy="119.914" r="4.423" fill="#ffffff" opacity="1" data-original="#000000" class=""></circle><path d="m141.914 225.158.943 14.557a4.627 4.627 0 0 0 4.917 4.318 4.602 4.602 0 0 0 2.652-1.059 4.61 4.61 0 0 0 4.476.812c.632-11.18 2.417-18.678 4.362-23.663l.768-11.854a2.977 2.977 0 0 0 1.784.59 2.994 2.994 0 0 0 2.984-2.8c1.591-24.348-3.915-30.156-5.034-31.072a2.978 2.978 0 0 0-1.805-.673c-.1-.01-.202-.017-.306-.017h-14.459c-.103 0-.205.006-.306.017a2.978 2.978 0 0 0-1.804.673c-.847.693-4.198 4.188-5.097 16.37 2.883 3.965 6.54 13.123 5.925 33.8z" fill="#ffffff" opacity="1" data-original="#000000" class=""></path><circle cx="150.426" cy="163.744" r="8.421" transform="rotate(-13.34 150.093 163.693)" fill="#ffffff" opacity="1" data-original="#000000" class=""></circle><path d="m193.016 180.171.987-15.234a2.03 2.03 0 0 0 1.216.402 2.042 2.042 0 0 0 2.036-1.909c1.085-16.604-2.67-20.564-3.434-21.19a2.031 2.031 0 0 0-1.23-.458 1.995 1.995 0 0 0-.209-.011h-9.86c-.07 0-.14.004-.209.01a2.031 2.031 0 0 0-1.23.46c-.764.625-4.519 4.585-3.433 21.19a2.042 2.042 0 0 0 3.251 1.506l.776 11.967c.377-.025.752-.058 1.135-.058 3.811 0 7.33 1.243 10.204 3.325z" fill="#ffffff" opacity="1" data-original="#000000" class=""></path><circle cx="187.452" cy="134.574" r="5.742" transform="rotate(-9.25 187.57 134.84)" fill="#ffffff" opacity="1" data-original="#000000" class=""></circle><path d="M169.881 212.432a5.11 5.11 0 0 0-3.096 1.155c-1.921 1.573-11.369 11.537-8.638 53.317a5.137 5.137 0 0 0 5.46 4.791 5.11 5.11 0 0 0 2.721-1l3.497 53.96a7.94 7.94 0 0 0 8.436 7.409 7.896 7.896 0 0 0 4.55-1.818 7.895 7.895 0 0 0 4.552 1.818 7.939 7.939 0 0 0 8.436-7.41l3.497-53.959a5.107 5.107 0 0 0 3.06 1.012 5.137 5.137 0 0 0 5.12-4.803c2.731-41.78-6.716-51.744-8.638-53.317a5.11 5.11 0 0 0-3.096-1.155 4.996 4.996 0 0 0-.525-.028h-24.81c-.178 0-.353.01-.526.028z" fill="#ffffff" opacity="1" data-original="#000000" class=""></path><circle cx="182.812" cy="194.295" r="14.449" fill="#ffffff" opacity="1" data-original="#000000" class=""></circle><circle cx="304.107" cy="133.58" r="5.742" fill="#ffffff" opacity="1" data-original="#000000" class=""></circle><path d="M310.476 141.246a2.03 2.03 0 0 0-1.23-.458 1.968 1.968 0 0 0-.21-.012h-9.86c-.07 0-.14.004-.208.012a2.031 2.031 0 0 0-1.23.458c-.765.626-4.52 4.586-3.434 21.19.026.398.166.761.384 1.062.458-.036.918-.07 1.386-.07 5.822 0 10.974 2.877 14.146 7.273l.438-6.758a2.029 2.029 0 0 0 2.96-.598c.113-1.127.252-2.162.408-3.126.624-14.738-2.822-18.376-3.55-18.972z" fill="#ffffff" opacity="1" data-original="#000000" class=""></path><circle cx="216.377" cy="127.081" r="5.742" fill="#ffffff" opacity="1" data-original="#000000" class=""></circle><path d="M224.01 157.842a2.041 2.041 0 0 0 2.17-1.904c1.085-16.604-2.67-20.565-3.434-21.19a2.03 2.03 0 0 0-1.23-.459 1.968 1.968 0 0 0-.209-.011h-9.86c-.07 0-.14.004-.209.011a2.031 2.031 0 0 0-1.23.46c-.764.624-4.519 4.585-3.434 21.189a2.042 2.042 0 0 0 3.252 1.507l1.39 21.444a3.155 3.155 0 0 0 3.353 2.945 3.138 3.138 0 0 0 1.808-.722 3.138 3.138 0 0 0 1.809.722 3.155 3.155 0 0 0 3.353-2.945l1.39-21.444c.304.226.674.37 1.08.397zM312.1 200.168a5.11 5.11 0 0 0-3.096-1.154 4.997 4.997 0 0 0-.525-.029h-24.81c-.178 0-.353.01-.525.029a5.11 5.11 0 0 0-3.096 1.154c-1.922 1.573-11.37 11.538-8.639 53.318a5.137 5.137 0 0 0 5.461 4.791 5.109 5.109 0 0 0 2.72-1l3.497 53.959a7.94 7.94 0 0 0 8.436 7.41 7.896 7.896 0 0 0 4.551-1.819 7.897 7.897 0 0 0 4.551 1.818 7.939 7.939 0 0 0 8.436-7.409l3.497-53.96a5.108 5.108 0 0 0 3.06 1.012 5.137 5.137 0 0 0 5.12-4.803c2.732-41.779-6.716-51.744-8.638-53.317z" fill="#ffffff" opacity="1" data-original="#000000" class=""></path><circle cx="296.074" cy="180.877" r="14.449" transform="rotate(-45 296.064 180.944)" fill="#ffffff" opacity="1" data-original="#000000" class=""></circle><path d="M315.201 178.296a2.69 2.69 0 0 0 4.284 1.985l1.831 28.254a4.157 4.157 0 0 0 4.418 3.88c.91-.06 1.73-.41 2.383-.952a4.134 4.134 0 0 0 2.383.952 4.157 4.157 0 0 0 4.417-3.88l1.831-28.254a2.674 2.674 0 0 0 1.602.53 2.69 2.69 0 0 0 2.682-2.515c1.43-21.877-3.517-27.095-4.523-27.919a2.676 2.676 0 0 0-1.622-.604 2.624 2.624 0 0 0-.274-.015H321.62c-.093 0-.185.005-.275.015a2.676 2.676 0 0 0-1.621.604c-1.006.824-5.953 6.042-4.524 27.919z" fill="#ffffff" opacity="1" data-original="#000000" class=""></path><circle cx="328.117" cy="140.276" r="7.566" transform="rotate(-9.25 328.386 140.638)" fill="#ffffff" opacity="1" data-original="#000000" class=""></circle><path d="M82.356 220.416c1.391-12.349-7.49-23.486-19.84-24.877-12.348-1.39-23.486 7.492-24.877 19.841-.976 8.671 3.117 16.74 9.915 21.262l15.63 3.534c9.908-1.41 18-9.354 19.173-19.76zM52.961 355.084l-8.47-19.456 24.647 27.247 1.367 47.393c.196 6.778 5.752 12.14 12.488 12.14.122 0 .245-.003.368-.006 6.9-.199 12.334-5.955 12.134-12.855l-1.5-52a12.504 12.504 0 0 0-3.224-8.026l-29-32.06 9.958-37.684 8.797 16.85a7.998 7.998 0 0 0 4.534 3.879l36.55 12.33c.85.287 1.71.423 2.56.423a8 8 0 0 0 2.557-15.582L93.22 286.373l-18.63-35.684a7.987 7.987 0 0 0-6.44-4.263l-35.749-8.085a8.055 8.055 0 0 0-1.982-.449l-.253-.056c-.025.01-.049.023-.074.033a7.955 7.955 0 0 0-5.371 1.693L3.055 256.603a8.003 8.003 0 0 0-.87 11.783l12.976 13.736-6.353 24.047c-1.36 3.083-1.49 6.698-.04 10.032L27.8 359.92 6.654 405.662c-2.897 6.267-.165 13.694 6.101 16.592a12.45 12.45 0 0 0 5.237 1.156c4.722 0 9.243-2.69 11.355-7.258l23.5-50.834a12.498 12.498 0 0 0 .114-10.234zM283.15 131.102c.03 0 .062 0 .093-.003a1.39 1.39 0 0 0 .74-.272l.95 14.675a2.16 2.16 0 0 0 3.532 1.52 2.159 2.159 0 0 0 3.532-1.52l.951-14.675a1.39 1.39 0 0 0 .832.275c.73 0 1.345-.567 1.393-1.306.743-11.362-1.827-14.072-2.35-14.5a1.39 1.39 0 0 0-.841-.314 1.373 1.373 0 0 0-.143-.007h-6.747c-.049 0-.096.003-.143.008a1.39 1.39 0 0 0-.842.313c-.523.428-3.092 3.138-2.35 14.5a1.397 1.397 0 0 0 1.393 1.306zM288.465 113.98a3.93 3.93 0 1 0 0-7.859 3.93 3.93 0 0 0 0 7.859zM256.273 115.296a1.39 1.39 0 0 0-.842-.314 1.373 1.373 0 0 0-.143-.007h-6.747c-.048 0-.096.003-.143.008a1.389 1.389 0 0 0-.842.313c-.522.428-3.092 3.138-2.349 14.5a1.397 1.397 0 0 0 2.225 1.031l.84 12.957a11.457 11.457 0 0 1 7.66-5.761l.466-7.196a1.39 1.39 0 0 0 .832.275c.73 0 1.344-.567 1.392-1.306.743-11.362-1.826-14.072-2.349-14.5zM247.985 110.05a3.93 3.93 0 1 0 7.86 0 3.93 3.93 0 0 0-7.86 0z" fill="#ffffff" opacity="1" data-original="#000000" class=""></path><circle cx="258.331" cy="149.184" r="8.421" transform="rotate(-45 258.322 149.243)" fill="#ffffff" opacity="1" data-original="#000000" class=""></circle><path d="M269.72 194.299a2.994 2.994 0 0 0 2.985-2.8c1.591-24.348-3.915-30.155-5.035-31.072a2.978 2.978 0 0 0-1.804-.673c-.1-.01-.202-.016-.306-.016h-14.459a2.89 2.89 0 0 0-.306.016 2.978 2.978 0 0 0-1.805.673c-.634.52-2.675 2.612-4.037 8.752 4.049 2.652 6.733 7.222 6.733 12.413 0 4.836-2.336 9.125-5.927 11.836h1.252c.213 0 .424.01.632.029a7.14 7.14 0 0 1 4.236 1.62c2.18 1.785 8.544 9.178 8.575 34.32.174.031.348.065.529.077a4.627 4.627 0 0 0 4.916-4.318l2.038-31.447a2.977 2.977 0 0 0 1.783.59z" fill="#ffffff" opacity="1" data-original="#000000" class=""></path><path d="M240.577 294.465a6.504 6.504 0 0 0 6.912-6.07l2.865-44.209a4.184 4.184 0 0 0 2.506.829 4.21 4.21 0 0 0 4.196-3.935c2.237-34.23-5.503-42.394-7.077-43.683a4.187 4.187 0 0 0-2.537-.945 4.098 4.098 0 0 0-.43-.024h-10.13l-.034.002-.034-.002h-10.13c-.145 0-.288.009-.43.024a4.186 4.186 0 0 0-2.536.945c-1.575 1.29-9.315 9.453-7.078 43.683a4.209 4.209 0 0 0 4.474 3.926 4.185 4.185 0 0 0 2.23-.82l2.864 44.209a6.505 6.505 0 0 0 6.912 6.07 6.468 6.468 0 0 0 3.728-1.49 6.47 6.47 0 0 0 3.73 1.49z" fill="#ffffff" opacity="1" data-original="#000000" class=""></path><circle cx="236.849" cy="181.592" r="11.838" transform="rotate(-9.25 236.992 181.943)" fill="#ffffff" opacity="1" data-original="#000000" class=""></circle><circle cx="120.206" cy="177.187" r="10.785" transform="rotate(-45 120.183 177.223)" fill="#ffffff" opacity="1" data-original="#000000" class=""></circle><path d="M108.244 191.586c-1.434 1.174-8.486 8.612-6.448 39.796a3.834 3.834 0 0 0 4.076 3.577 3.813 3.813 0 0 0 2.03-.747l2.61 40.275a5.926 5.926 0 0 0 6.297 5.53 5.894 5.894 0 0 0 3.397-1.356 5.894 5.894 0 0 0 3.397 1.357 5.926 5.926 0 0 0 6.297-5.53l2.61-40.276a3.812 3.812 0 0 0 2.284.755 3.835 3.835 0 0 0 3.822-3.585c2.038-31.184-5.014-38.622-6.448-39.796a3.814 3.814 0 0 0-2.31-.862 3.752 3.752 0 0 0-.393-.021h-18.518c-.133 0-.263.008-.392.021a3.815 3.815 0 0 0-2.311.862z" fill="#ffffff" opacity="1" data-original="#000000" class=""></path></g></svg>