<svg xmlns="http://www.w3.org/2000/svg" version="1.1" xmlns:xlink="http://www.w3.org/1999/xlink" width="512" height="512" x="0" y="0" viewBox="0 0 512 511" style="enable-background:new 0 0 512 512" xml:space="preserve" class=""><g><path fill="#ffffff" d="m379.441 310.25 67.48-66.773c25.204-25.204 73.677 6.593 47.49 37.402l-81.712 96.133a57.319 57.319 0 0 1-10.93 9.918c-13.171 8.418-28.859 11.222-44.316 11.222H236.195c-8.77 0-17.535.508-26.246 1.52l-34.875 3.918-72.336-70.195s41.035-77.493 121.532-55.22c15.054 4.169 30.632 6.153 46.253 6.153h79.692c37.515 0 37.812 59.61-.313 59.61h-69.375" opacity="1" data-original="#ffcdac"></path><path fill="#ffffff" d="m127.559 494.934 68.816-70.602a.05.05 0 0 0 0-.07L79.605 310.945c-.02-.02-.05-.015-.07 0L10.07 383.063zm0 0" opacity="1" data-original="#6bd5e1" class=""></path><path fill="#f6f6f6" d="M92.645 100.32c-21.813 2.067-38.88 20.434-38.88 42.79v45.765c0 7.902 6.407 14.313 14.313 14.313h98.14c7.907 0 14.313-6.41 14.313-14.313v-45.766c0-22.37-17.09-40.754-38.93-42.793" opacity="1" data-original="#ffb677" class=""></path><path fill="#ffffff" d="M165.172 58.86c0 26.523-21.5 48.023-48.024 48.023-26.523 0-48.023-21.5-48.023-48.024s21.5-48.027 48.023-48.027c26.524 0 48.024 21.504 48.024 48.027zm0 0" opacity="1" data-original="#ffcdac"></path><path fill="#fffbfb" d="M219.414 100.32c-21.812 2.067-38.883 20.434-38.883 42.79v45.765c0 7.902 6.41 14.313 14.317 14.313h98.14c7.907 0 14.313-6.41 14.313-14.313v-45.766c0-22.37-17.094-40.754-38.93-42.793" opacity="1" data-original="#ff8364" class=""></path><path fill="#ffffff" d="M291.941 58.86c0 26.523-21.5 48.023-48.023 48.023-26.523 0-48.027-21.5-48.027-48.024s21.504-48.027 48.027-48.027 48.023 21.504 48.023 48.027zm0 0" opacity="1" data-original="#347b9382"></path><path fill="#ffffff" d="M346.184 100.32c-21.817 2.067-38.883 20.434-38.883 42.79v45.765c0 7.902 6.41 14.313 14.312 14.313h98.14c7.907 0 14.317-6.41 14.317-14.313v-45.766c0-22.37-17.093-40.754-38.933-42.793" opacity="1" data-original="#ffd98e" class=""></path><path fill="#ffffff" d="M418.71 58.86c0 26.523-21.503 48.023-48.026 48.023-26.524 0-48.024-21.5-48.024-48.024s21.5-48.027 48.024-48.027c26.523 0 48.027 21.504 48.027 48.027zm0 0" opacity="1" data-original="#ffcdac"></path><path d="M499.902 236.066c-7.664-7.07-18.09-11.437-28.605-11.984-11.942-.617-23.129 3.64-31.461 11.977l-56.93 56.332a37.788 37.788 0 0 0-3.851-5.496C372.05 278.578 361.809 274 350.219 274h-79.696c-15.027 0-29.687-1.95-43.57-5.79-36.195-10.01-70.773-2.698-100.004 21.161-11.886 9.703-20.558 20.258-26.043 27.953l-14.289-13.867a10.158 10.158 0 0 0-7.047-2.86h-.066a10.179 10.179 0 0 0-7.223 3.102L2.816 375.812a10.065 10.065 0 0 0-2.812 7.204 10.07 10.07 0 0 0 3.121 7.078l117.488 111.87a10.046 10.046 0 0 0 6.946 2.782 10.05 10.05 0 0 0 7.214-3.043l68.817-70.601a10.18 10.18 0 0 0 2.87-7.262 10.172 10.172 0 0 0-3.07-7.07l-5.992-5.813 13.715-1.543a217.973 217.973 0 0 1 25.086-1.453h121.254c19.703 0 36.438-4.309 49.742-12.809.11-.07.22-.144.328-.218a67.12 67.12 0 0 0 12.848-11.664l81.711-96.13c13.984-16.449 13.11-36.976-2.18-51.074zm-372.605 244.45L24.352 382.492l55.457-57.574 102.343 99.316zm359.437-206.422-81.71 96.133a47.08 47.08 0 0 1-8.844 8.058c-9.989 6.324-23.016 9.535-38.727 9.535H236.195c-9.12 0-18.343.535-27.37 1.586l-30.15 3.383-63.124-61.258c4.386-6.504 12.453-17.015 24.136-26.554 24.29-19.829 51.844-25.668 81.895-17.352 15.633 4.324 32.098 6.52 48.941 6.52h79.696c14.312 0 18.133 12.398 18.133 19.722 0 5.352-1.72 10.446-4.715 13.977-3.25 3.824-7.871 5.761-13.735 5.761h-69.375c-5.562 0-10.07 4.512-10.07 10.075s4.508 10.07 10.07 10.07h69.375c11.711 0 22.04-4.57 29.086-12.867 5.864-6.899 9.207-15.969 9.489-25.664l65.566-64.88c9.371-9.37 24.012-7.019 32.203.536 4.234 3.906 9.93 12.113.488 23.219zm0 0" fill="#347b9382" opacity="1" data-original="#000000" class=""></path><path d="M249.117 340.996c-1.27-5.418-6.687-8.773-12.105-7.508-5.414 1.27-8.778 6.688-7.504 12.106l.094.41c1.09 4.64 5.226 7.773 9.796 7.773.762 0 1.536-.086 2.309-.265 5.418-1.27 8.777-6.692 7.508-12.106zM68.078 213h98.14c5.345 0 10.29-1.734 14.313-4.664A24.236 24.236 0 0 0 194.844 213h98.144c5.344 0 10.29-1.734 14.313-4.664A24.236 24.236 0 0 0 321.613 213h98.14c13.446 0 24.384-10.941 24.384-24.387v-45.765c0-20.555-11.504-38.41-28.723-47.22 8.344-10.062 13.367-22.968 13.367-37.03C428.781 26.563 402.72.5 370.684.5s-58.098 26.063-58.098 58.098c0 14.062 5.023 26.972 13.367 37.03a52.759 52.759 0 0 0-18.652 15.993 52.66 52.66 0 0 0-18.656-15.992c8.343-10.059 13.367-22.969 13.367-37.031C302.012 26.563 275.949.5 243.914.5s-58.098 26.063-58.098 58.098c0 14.062 5.028 26.972 13.371 37.035a52.66 52.66 0 0 0-18.656 15.992 52.71 52.71 0 0 0-18.656-15.996c8.344-10.059 13.367-22.969 13.367-37.027C175.242 26.562 149.18.5 117.145.5 85.113.5 59.05 26.563 59.05 58.602c0 14.058 5.023 26.968 13.367 37.03-17.219 8.81-28.727 26.669-28.727 47.22v45.761C43.691 202.06 54.633 213 68.078 213zm302.61-192.355c20.925 0 37.953 17.023 37.953 37.953 0 20.925-17.028 37.953-37.954 37.953-20.93 0-37.953-17.024-37.953-37.953-.004-20.93 17.024-37.953 37.954-37.953zm-26.168 89.8a57.725 57.725 0 0 0 26.164 6.25 57.7 57.7 0 0 0 26.164-6.25c15.652 2.727 27.148 16.215 27.148 32.403v45.765a4.246 4.246 0 0 1-4.242 4.242h-98.14a4.245 4.245 0 0 1-4.239-4.242v-45.765c-.004-16.184 11.496-29.676 27.145-32.403zm-100.602-89.8c20.926 0 37.953 17.023 37.953 37.953 0 20.925-17.027 37.953-37.953 37.953-20.93 0-37.953-17.024-37.953-37.953 0-20.93 17.023-37.953 37.953-37.953zm-26.164 89.8a57.7 57.7 0 0 0 26.164 6.25c9.41 0 18.293-2.261 26.164-6.25 15.648 2.727 27.148 16.215 27.148 32.403v45.765a4.246 4.246 0 0 1-4.242 4.242h-98.14a4.246 4.246 0 0 1-4.243-4.242v-45.765c0-16.184 11.5-29.676 27.149-32.403zm-100.606-89.8c20.926 0 37.954 17.023 37.954 37.953 0 20.925-17.028 37.953-37.954 37.953-20.925 0-37.953-17.028-37.953-37.953 0-20.93 17.028-37.953 37.953-37.953zM63.836 142.848c0-16.184 11.5-29.676 27.148-32.403a57.713 57.713 0 0 0 26.164 6.25c9.41 0 18.293-2.261 26.165-6.25 15.652 2.727 27.148 16.215 27.148 32.403v45.765a4.246 4.246 0 0 1-4.242 4.242h-98.14a4.246 4.246 0 0 1-4.243-4.242zm0 0" fill="#347b9382" opacity="1" data-original="#347b9382" class=""></path></g></svg>