<svg id="Capa_1" fill="#ffffff" height="50px" width="50px" enable-background="new 0 0 512 512" viewBox="0 0 512 512" xmlns="http://www.w3.org/2000/svg"><g><path d="m256 100c22.056 0 40-17.944 40-40v-20c0-22.056-17.944-40-40-40s-40 17.944-40 40v20c0 22.056 17.944 40 40 40z"/><path d="m406 100c22.056 0 40-17.944 40-40v-20c0-22.056-17.944-40-40-40s-40 17.944-40 40v20c0 22.056 17.944 40 40 40z"/><path d="m106 100c22.056 0 40-17.944 40-40v-20c0-22.056-17.944-40-40-40s-40 17.944-40 40v20c0 22.056 17.944 40 40 40z"/><path d="m331 175c0-24.941-12.174-47.038-30.904-60.674-12.045 9.796-27.397 15.674-44.096 15.674s-32.051-5.878-44.096-15.674c-18.73 13.636-30.904 35.733-30.904 60.674v15h150z"/><path d="m450.096 114.326c-12.045 9.796-27.397 15.674-44.096 15.674s-32.051-5.878-44.096-15.673c-4.759 3.464-9.094 7.475-12.914 11.939 7.668 14.572 12.01 31.155 12.01 48.734v15h105c8.284 0 15-6.716 15-15 0-24.941-12.174-47.038-30.904-60.674z"/><path d="m151 175c0-17.579 4.342-34.162 12.01-48.734-3.82-4.465-8.156-8.475-12.914-11.939-12.045 9.795-27.397 15.673-44.096 15.673s-32.051-5.878-44.096-15.674c-18.73 13.636-30.904 35.733-30.904 60.674 0 8.284 6.716 15 15 15h105z"/><path d="m346 337c0 49.706-40.294 90-90 90-49.706 0-90-40.294-90-90v-25h-85v25c0 96.495 78.505 175 175 175s175-78.505 175-175v-25h-85z"/><path d="m416 222h-55c-8.284 0-15 6.716-15 15v45h85v-45c0-8.284-6.716-15-15-15z"/><path d="m151 222h-55c-8.284 0-15 6.716-15 15v45h85v-45c0-8.284-6.716-15-15-15z"/></g><g/><g/><g/><g/><g/><g/><g/><g/><g/><g/><g/><g/><g/><g/><g/></svg>