<svg  height="64" viewBox="0 0 64 64" width="64" xmlns="http://www.w3.org/2000/svg"><g fill="#0d4876"><path d="m7 2c-.9019 0-1.69222.60364-1.92953 1.47377l-3 11.00003c-.04677.1715-.07047.3484-.07047.5262 0 2.6655 1.15875 5.0604 3 6.7083v30.2917c0 5.5228 4.47715 10 10 10h17c1.1046 0 2-.8954 2-2s-.8954-2-2-2h-17c-3.3137 0-6-2.6863-6-6v-28.223c.64322.1459 1.3126.223 2 .223 2.8273 0 5.35-1.3037 7-3.3427 1.65 2.039 4.1727 3.3427 7 3.3427s5.35-1.3037 7-3.3427c1.65 2.039 4.1727 3.3427 7 3.3427s5.35-1.3037 7-3.3427c1.65 2.039 4.1727 3.3427 7 3.3427.6874 0 1.3568-.0771 2-.223v9.723c0 1.1046.8954 2 2 2s2-.8954 2-2v-11.7917c1.8412-1.6479 3-4.0428 3-6.7083 0-.1778-.0237-.3547-.0705-.5262l-3-11.00003c-.2373-.87013-1.0276-1.47377-1.9295-1.47377z"/><path d="m49 35c-4.4183 0-8 3.5817-8 8 0 2.086.7984 3.9855 2.1063 5.4097-4.2176 2.1489-7.1063 6.5323-7.1063 11.5903 0 1.1046.8954 2 2 2h22c1.1046 0 2-.8954 2-2 0-5.058-2.8887-9.4414-7.1063-11.5903 1.3079-1.4242 2.1063-3.3237 2.1063-5.4097 0-4.4183-3.5817-8-8-8z"/></g></svg>