<svg xmlns="http://www.w3.org/2000/svg" version="1.1" xmlns:xlink="http://www.w3.org/1999/xlink" width="512" height="512" x="0" y="0" viewBox="0 0 512 512" style="enable-background:new 0 0 512 512" xml:space="preserve" class=""><g><path fill="#ffffff" d="M10 462h492v40H10z" opacity="1" data-original="#6e83b7" class=""></path><path fill="#ffffff" d="M164 462V332h80v130z" opacity="1" data-original="#98ca69" class=""></path><path fill="#ffffff" d="M60 462v-90h80v90z" opacity="1" data-original="#ffb0aa" class=""></path><path fill="#ffffff" d="M348 242v220h-80V242z" opacity="1" data-original="#80d6fb" class=""></path><path fill="#ffffff" d="M372 182h80v280h-80z" opacity="1" data-original="#ffe352" class=""></path><path fill="#ffffff" d="M46 274c0 20.435 16.565 37 37 37s37-16.565 37-37v-11H46zM86 73c-27.614 0-50 22.386-50 50 0 32.688 10 120 10 120h74v-42c0-24.083 16-48.931 16-78 0-27.614-22.386-50-50-50zM243 211c0 20.435-16.565 37-37 37s-37-16.565-37-37v-11h74zM203 10c27.614 0 50 22.386 50 50 0 32.688-10 120-10 120h-74v-42c0-24.083-16-48.931-16-78 0-27.614 22.386-50 50-50z" opacity="1" data-original="#6e83b7" class=""></path></g></svg>