<svg id="svg8"  fill="#0d4876"  height="512" viewBox="0 0 16.933333 16.933334" width="512" xmlns="http://www.w3.org/2000/svg" xmlns:svg="http://www.w3.org/2000/svg"><g id="layer6" stroke-linejoin="round" stroke-width="3.78" transform="scale(.265)"><path id="path846" d="m25.001953 13.169922c-5.432768 0-10.351652.738311-13.826172 1.896484-1.7372598.579087-3.1133772 1.269068-3.9863279 1.957032-.8729503.687962-1.1875 1.29345-1.1875 1.808593.0000008.515143.3145494 1.120632 1.1875 1.808594.8729511.687962 2.2490681 1.375992 3.9863279 1.955078 3.47452 1.158173 8.393405 1.904297 13.826172 1.904297.00524 0 .010425.000001.015625 0 5.426543-.001437 10.339373-.747239 13.810547-1.904297 1.737256-.579086 3.105566-1.267116 3.978516-1.955078.872942-.687962 1.197265-1.293451 1.197265-1.808594s-.324315-1.120631-1.197265-1.808593c-.87295-.687964-2.24126-1.377945-3.978516-1.957032-3.474521-1.158173-8.393405-1.896484-13.826172-1.896484zm0 2c2.299209 0 4.380179.295346 5.972656.826172.796239.265413 1.4717.583057 2.015625 1.011718.543925.428662 1.011719 1.0507 1.011719 1.824219s-.467794 1.393605-1.011719 1.822266-1.219386.746305-2.015625 1.011719c-1.592477.530826-3.673447.833984-5.972656.833984-2.29921 0-4.378225-.303158-5.970703-.833984-.796239-.265414-1.479512-.583058-2.023438-1.011719-.543925-.428661-1.011718-1.048747-1.011718-1.822266s.467793-1.395557 1.011718-1.824219c.543926-.428661 1.227199-.746305 2.023438-1.011718 1.592478-.530827 3.671494-.826172 5.970703-.826172zm0 2c-2.119063 0-4.0408.290293-5.34375.724609-.651475.217158-1.144437.476137-1.410156.685547-.265724.209409-.251953.289106-.251953.251953 0-.03714-.013765.048403.251953.257813.265718.209409.758681.462529 1.410156.679687 1.30295.434317 3.224687.730469 5.34375.730469s4.034942-.296152 5.337891-.730469c.651474-.217158 1.144438-.470276 1.410156-.679687.265723-.209409.25-.294966.25-.257813 0 .037142.01572-.042544-.25-.251953-.265718-.209409-.758682-.46839-1.410156-.685547-1.302949-.434318-3.218828-.724609-5.337891-.724609z"/><path id="path850" d="m6.0019531 22.253906c1.1458851.888799 2.6853703 1.620385 4.5390629 2.238282 3.759211 1.25307 8.83511 2.007833 14.439453 2.009765.0072.000003.01427 0 .02148 0 16.618578.329373 27.212383 4.553597 32.998051 10.783203v12.128906c-2.180395-2.0674-4.836354-3.942988-8.001953-5.535156v-6.710937c.0022-.552478-.443614-1.002007-.996094-1.003907-.555364-.0022-1.008051.448543-1.005859 1.003907v5.769531c-1.257613-.548119-2.587838-1.054757-3.992188-1.513672v-3.259766c-.001901-.552478-.45143-.998271-1.003906-.996093-.549596.0019-.994204.446497-.996094.996093v2.654297c-1.276311-.358844-2.611155-.679201-4.001953-.960937v-6.691406c-.0019-.55248-.451428-.998273-1.003906-.996094-.549597.0019-.994203.446496-.996094.996094v6.318359c-1.287509-.216636-2.620552-.400462-4.001953-.548828v-2.771485c-.0019-.552478-.451429-.998271-1.003906-.996093-.549598.0019-.994203.446496-.996094.996093v2.587891c-1.294691-.10387-2.627648-.17832-4.001953-.220703v-6.701172c-.0019-.549597-.446497-.994203-.996094-.996094-.552478-.0022-1.002007.443615-1.003906.996094v6.658203c-1.376272-.0232-2.714639-.0946-4-.207031v-3.113281c.0022-.552478-.443615-1.002007-.996094-1.003907-.555364-.0022-1.00805.448543-1.005859 1.003907v2.898437c-1.421897-.180604-2.761273-.411948-3.992188-.689453v-7.207031c.002191-.555364-.448542-1.006097-1.003906-1.003906-.552479.0019-.998272.451428-.996094 1.003906v6.6875c-.283411-.083845-.561326-.16888-.828125-.257813-1.7372456-.578908-3.1133776-1.269069-3.9863279-1.957031-.8729499-.687962-1.1875004-1.29345-1.1875-1.808594z"/><path id="path848" d="m44.003906 22.246094v4.828125c-2.405312-.696197-5.024095-1.260721-7.859375-1.683594 1.187747-.26008 2.299706-.56084 3.3125-.898437 1.858994-.619665 3.399973-1.353862 4.546875-2.246094z"/></g></svg>