<svg clip-rule="evenodd" fill-rule="evenodd"  fill="#0d4876"  stroke-linejoin="round" stroke-miterlimit="2" viewBox="0 0 510 510" xmlns="http://www.w3.org/2000/svg"><path d="m72.273 347.042-22.839 6.653c-4.24 1.235-8.684-1.204-9.919-5.443-1.234-4.24 1.205-8.684 5.444-9.919l18.763-5.466-4.648-18.982c-1.05-4.289 1.579-8.623 5.868-9.673 4.288-1.05 8.623 1.579 9.673 5.868l5.658 23.105 44.957 25.956v-51.912l-17.181-16.452c-3.189-3.054-3.299-8.122-.245-11.311 3.053-3.189 8.122-3.299 11.311-.245l14.115 13.516 14.115-13.516c3.189-3.054 8.257-2.944 11.311.245s2.944 8.257-.245 11.311l-17.181 16.452v51.912l44.957-25.956 5.658-23.105c1.05-4.289 5.384-6.918 9.673-5.868s6.918 5.384 5.868 9.673l-4.648 18.982 18.763 5.466c4.239 1.235 6.678 5.679 5.443 9.919-1.235 4.239-5.679 6.678-9.918 5.443l-22.839-6.653-44.957 25.956 44.957 25.956 22.839-6.653c4.239-1.235 8.683 1.204 9.918 5.443s-1.204 8.683-5.443 9.918l-18.763 5.466 4.648 18.983c1.05 4.288-1.579 8.623-5.868 9.673s-8.623-1.579-9.673-5.868l-5.658-23.106-44.957-25.956v51.912l17.181 16.453c3.189 3.054 3.299 8.122.245 11.311s-8.122 3.299-11.311.245l-14.115-13.517-14.115 13.517c-3.189 3.054-8.258 2.944-11.311-.245-3.054-3.189-2.944-8.257.245-11.311l17.181-16.453v-51.912l-44.957 25.956-5.658 23.106c-1.05 4.289-5.385 6.918-9.673 5.868-4.289-1.05-6.918-5.385-5.868-9.673l4.648-18.983-18.763-5.466c-4.239-1.235-6.678-5.679-5.444-9.918 1.235-4.239 5.679-6.678 9.919-5.443l22.839 6.653 44.957-25.956zm174.727-84.042h-232c-4.415 0-8-3.585-8-8s3.585-8 8-8h232v-232c0-4.415 3.585-8 8-8s8 3.585 8 8v232h232c4.415 0 8 3.585 8 8s-3.585 8-8 8h-232v232c0 4.415-3.585 8-8 8s-8-3.585-8-8zm134.038-189.616c31.989 0 57.96 25.971 57.96 57.96 0 31.988-25.971 57.959-57.96 57.959-31.988 0-57.959-25.971-57.959-57.959 0-31.989 25.971-57.96 57.959-57.96zm-8-42.998c0-4.415 3.585-8 8-8 4.416 0 8 3.585 8 8v20.969c0 4.415-3.584 8-8 8-4.415 0-8-3.585-8-8zm-83.432 57.407c-3.823-2.208-5.135-7.104-2.928-10.928 2.208-3.824 7.105-5.136 10.928-2.928l18.16 10.484c3.824 2.208 5.136 7.104 2.928 10.928-2.207 3.824-7.104 5.136-10.928 2.928zm8 100.957c-3.823 2.208-8.72.896-10.928-2.928-2.207-3.823-.895-8.72 2.928-10.928l18.16-10.484c3.824-2.208 8.721-.896 10.928 2.928 2.208 3.824.896 8.72-2.928 10.928zm91.432 43.551c0 4.415-3.584 8-8 8-4.415 0-8-3.585-8-8v-20.969c0-4.415 3.585-8 8-8 4.416 0 8 3.585 8 8zm83.432-57.407c3.824 2.208 5.136 7.105 2.928 10.928-2.207 3.824-7.104 5.136-10.928 2.928l-18.16-10.484c-3.823-2.208-5.135-7.104-2.928-10.928 2.208-3.824 7.105-5.136 10.928-2.928zm-8-100.957c3.824-2.208 8.721-.896 10.928 2.928 2.208 3.824.896 8.72-2.928 10.928l-18.16 10.484c-3.823 2.208-8.72.896-10.928-2.928-2.207-3.824-.895-8.72 2.928-10.928zm-401.763 104.376c-.391.562-7.531 11.275-4.688 40.919.421 4.395-2.805 8.306-7.2 8.727-4.395.422-8.305-2.804-8.727-7.199-3.916-40.838 7.688-52.586 10.207-54.627.751-.743 2.374-2.338 4.662-4.524.166-22.853 8.385-75.605 79.04-87.267 90.824-14.99 77.456-16.754 91.001-24.09 13.544-7.337-32.976 71.497-48.349 84.641-13.891 11.877-34.251 41.995-110.523 38.066-3.086 3.008-4.916 4.883-4.916 4.883-.163.166-.333.323-.507.471zm377.042 228.128h-127.302c-17.55 0-31.905-14.356-31.905-31.894 0-13.305 8.261-24.772 19.897-29.546-.057-.97-.079-1.952-.079-2.934 0-28.158 22.819-50.988 50.977-50.988 13.768 0 26.273 5.462 35.448 14.344 4.853-1.738 10.078-2.686 15.529-2.686 23.734 0 43.258 17.955 45.752 41.023 13.848 3.758 23.587 16.421 23.587 30.787 0 17.538-14.355 31.894-31.904 31.894zm-71.651 23.958c0-4.415 3.584-8 8-8 4.415 0 8 3.585 8 8v21.452c0 4.415-3.585 8-8 8-4.416 0-8-3.585-8-8zm45.548 0c0-4.415 3.584-8 8-8 4.415 0 8 3.585 8 8v21.452c0 4.415-3.585 8-8 8-4.416 0-8-3.585-8-8zm-91.096 0c0-4.415 3.584-8 8-8 4.415 0 8 3.585 8 8v21.452c0 4.415-3.585 8-8 8-4.416 0-8-3.585-8-8z"/></svg>