<svg id="Capa_1" enable-background="new 0 0 512 512" height="512" viewBox="0 0 512 512" width="512" xmlns="http://www.w3.org/2000/svg"><g><path d="m484.394 140.262c-17.462-34.387-42.976-64.92-73.783-88.299-7.193-5.458-17.543-3.371-22.058 4.449l-61.52 106.556c-3.419 5.922-2.4 13.407 2.478 18.2 20.306 19.95 31.489 46.526 31.489 74.832s-11.183 54.882-31.489 74.832c-4.878 4.793-5.897 12.278-2.478 18.2l61.52 106.556c4.515 7.82 14.865 9.908 22.058 4.449 30.807-23.379 56.321-53.912 73.783-88.299 18.318-36.072 27.606-75.012 27.606-115.738s-9.288-79.666-27.606-115.738z"/><g><path d="m355.443 20.039c-31.514-13.297-64.972-20.039-99.443-20.039-40.726 0-79.666 9.288-115.739 27.606-34.386 17.462-64.919 42.976-88.298 73.783-5.459 7.193-3.371 17.543 4.449 22.058l106.556 61.52c5.922 3.419 13.407 2.4 18.199-2.477 19.952-20.306 46.528-31.49 74.833-31.49 9.223 0 18.656 1.322 28.038 3.931 6.591 1.832 13.587-1.028 17.008-6.952l61.557-106.619c4.511-7.814 1.153-17.813-7.16-21.321z"/><path d="m362.602 470.641-61.556-106.619c-3.42-5.924-10.416-8.784-17.007-6.953-9.385 2.609-18.819 3.931-28.039 3.931s-18.654-1.322-28.039-3.931c-6.591-1.831-13.586 1.028-17.007 6.953l-61.556 106.619c-4.511 7.813-1.154 17.813 7.159 21.32 31.514 13.297 64.972 20.039 99.443 20.039s67.929-6.742 99.443-20.039c8.313-3.508 11.671-13.507 7.159-21.32z"/><path d="m182.49 330.832c-20.307-19.95-31.49-46.526-31.49-74.832 0-9.22 1.322-18.653 3.931-28.038 1.832-6.591-1.028-13.586-6.952-17.007l-106.62-61.558c-7.813-4.511-17.812-1.154-21.32 7.159v.001c-13.297 31.514-20.039 64.971-20.039 99.443 0 40.726 9.288 79.666 27.606 115.738 17.462 34.387 42.976 64.92 73.783 88.299h.001c7.193 5.458 17.543 3.371 22.057-4.449l61.52-106.557c3.419-5.922 2.4-13.406-2.477-18.199z"/></g></g></svg>