<svg id="Layer_1" fill="#ffffff" height="55px" width="55px" enable-background="new 0 0 512 512" viewBox="0 0 512 512" xmlns="http://www.w3.org/2000/svg"><path d="m87.208 232.469c140.122-49.817 191.364-110.933 209.677-144.204l-16.731-7.189c-4.522-1.943-5.052-8.342-.55-10.843l64.372-35.76c3.464-1.925 7.804-.06 8.792 3.778l18.367 71.311c1.284 4.987-3.724 9.009-8.247 7.062l-20.118-8.644c-45.589 57.827-120.105 123.569-255.562 124.489zm303.345-61.797h18.061v239.283c0 3.305 2.695 6 6 6h51.495c3.305 0 6-2.695 6-6v-239.283h18.061c6.054 0 9.436-6.953 5.7-11.716l-44.107-56.236c-5.8-7.394-17.003-7.394-22.802 0l-44.107 56.236c-3.737 4.764-.354 11.716 5.699 11.716zm-88.532 46.904c-3.305 0-6 2.695-6 6v186.38c0 3.305 2.695 6 6 6h51.495c3.305 0 6-2.695 6-6 0-62.127 0-124.253 0-186.38 0-3.305-2.695-6-6-6-17.165 0-34.329 0-51.495 0zm-112.592 46.903c-3.305 0-6 2.695-6 6v139.477c0 3.305 2.695 6 6 6h51.495c3.305 0 6-2.695 6-6 0-46.492 0-92.984 0-139.477 0-3.304-2.695-6-6-6-17.164 0-34.329 0-51.495 0zm301.264 188.201h-456.579v-390.532c0-7.073-5.734-12.807-12.807-12.807s-12.807 5.734-12.807 12.807v403.338c0 7.073 5.734 12.807 12.807 12.807h469.386c7.073 0 12.807-5.734 12.807-12.807s-5.734-12.806-12.807-12.806zm-413.855-36.725h51.495c3.305 0 6-2.695 6-6v-92.573c0-3.305-2.695-6-6-6h-51.495c-3.305 0-6 2.695-6 6v92.573c0 3.305 2.695 6 6 6z"/></svg>