<svg id="Layer_1" fill="#0d4876" enable-background="new 0 0 512 512" height="35" viewBox="0 0 512 512" width="35" xmlns="http://www.w3.org/2000/svg"><g><path d="m340.547 124.806h111.622l-126.613-124.806v109.806c0 8.271 6.725 15 14.991 15z"/><path d="m60 497c0 8.284 6.716 15 15 15h362.168c8.284 0 15-6.716 15-15v-36h-392.168z"/><path d="m452.168 154.806h-111.621c-24.808 0-44.991-20.187-44.991-45v-109.806h-220.556c-8.284 0-15 6.716-15 15v178h392.168z"/><path d="m482 222h-452c-16.569 0-30 13.432-30 30v150c0 16.568 13.431 30 30 30h452c16.569 0 30-13.432 30-30v-150c0-16.568-13.431-30-30-30zm-298.415 170.998c-3.695 0-6.698-1.602-8.085-3.738l-33.957-45.749-33.727 45.749c-1.617 2.136-4.62 3.738-8.316 3.738-9.322-.118-24.79-6.963-17.787-15.843l39.964-50.199-38.577-50.021c-7.357-9.217 6.705-15.712 17.094-15.843 4.62 0 7.855 1.958 9.934 4.984l31.416 43.612 31.416-43.612c2.311-3.026 5.314-4.984 10.164-4.984 10.39.131 24.451 6.625 17.095 15.843l-38.578 50.021 39.964 50.199c6.427 8.989-8.398 15.71-18.02 15.843zm123.12-.891h-73.228c-6.699 0-13.167-2.492-13.167-7.298v-115.706c-.195-9.561 30.085-9.584 30.03 0v102.711h56.365c11.995-.058 12.028 20.235 0 20.293zm70.452 1.603c-30.262 0-53.362-11.749-53.362-22.073 0-4.984 6.007-12.461 13.168-12.461 9.471 0 15.708 13.706 39.271 13.706 13.859 0 25.872-4.806 25.872-15.487 0-26.701-74.152-18.513-74.152-60.701 0-26.523 29.568-35.602 56.134-35.602 13.629 0 43.891 2.492 43.891 14.241 0 4.094-3.696 12.283-12.012 12.283-7.161 0-12.475-6.765-31.879-6.765-16.632 0-26.103 5.163-26.103 13.707 0 22.073 74.152 14.419 74.152 60.523-.002 25.456-23.102 38.629-54.98 38.629z"/></g></svg>